{"title":"Piya Tore Bina - Badshah - The Don  2016 - Jeet, Nusrat Faria, S","uid":15136431,"size":98216299,"categoryP":"video","categoryS":"music_videos","magnet":"?xt=urn:btih:eae9e11759275985be24c1280836013da03d8b48&amp;dn=Piya+Tore+Bina+-+Badshah+-+The+Don++2016+-+Jeet%2C+Nusrat+Faria%2C+S&amp;tr=udp%3A%2F%2Ftracker.leechers-paradise.org%3A6969&amp;tr=udp%3A%2F%2Fzer0day.ch%3A1337&amp;tr=udp%3A%2F%2Fopen.demonii.com%3A1337&amp;tr=udp%3A%2F%2Ftracker.coppersurfer.tk%3A6969&amp;tr=udp%3A%2F%2Fexodus.desync.com%3A6969","seeders":0,"leechers":1,"uploader":"MdTaRa","files":1,"time":1467177204,"description":"==================================================================\r\nGeneral\r\nComplete name               : Piya Tore Bina - Badshah - The Don  2016 - Jeet, Nusrat Faria, Shraddha Das - Full HD 1080p.mkv\r\nFormat                      : Matroska\r\nFormat version              : Version 4 / Version 2\r\nFile size                   : 93.7 MiB\r\nDuration                    : 4mn 40s\r\nOverall bit rate mode       : Variable\r\nOverall bit rate            : 2 797 Kbps\r\n==================================================================\r\nVideo\r\nID                          : 1\r\nFormat                      : AVC\r\nFormat/Info                 : Advanced Video Codec\r\nFormat profile              :   \r\nFormat settings, CABAC      : Yes\r\nFormat settings, ReFrames   : 3 frames\r\nCodec ID                    : V_MPEG4/ISO/AVC\r\nDuration                    : 4mn 40s\r\nBit rate mode               : Variable\r\nBit rate                    : 2 702 Kbps\r\nMaximum bit rate            : 40.0 Mbps\r\nWidth                       : 1 912 pixels\r\nHeight                      : 816 pixels\r\nDisplay aspect ratio        : 2.35:1\r\nFrame rate mode             : Constant\r\nFrame rate                  : 24.000 fps\r\nColor space                 : YUV\r\nChroma subsampling          : 4:2:0\r\nBit depth                   : 8 bits\r\nScan type                   : Progressive\r\nBits/(Pixel*Frame)          : 0.072\r\nStream size                 : 90.4 MiB (96%)\r\nTitle                       : = __ TaRa ~ DDR __ =\r\nWriting library             : x264 core 146 r2538 121396c\r\nLanguage                    : Bengali\r\nDefault                     : Yes\r\nForced                      : No\r\n===================================================================\r\nAudio\r\nID                          : 2\r\nFormat                      : AAC\r\nFormat/Info                 : Advanced Audio Codec\r\nFormat profile              : LC\r\nCodec ID                    : A_AAC\r\nDuration                    : 4mn 40s\r\nBit rate                    : 96.0 Kbps\r\nChannel(s)                  : 2 channels\r\nChannel positions           : Front: L R\r\nSampling rate               : 44.1 KHz\r\nFrame rate                  : 43.066 fps (1024 spf)\r\nCompression mode            : Lossy\r\nDelay relative to video     : 10ms\r\nStream size                 : 3.21 MiB (3%)\r\nTitle                       : = __ TaRa ~ DDR __ =\r\nLanguage                    : Bengali\r\nDefault                     : Yes\r\nForced                      : No\r\n=================================================================== \nhttp://imgur.com/xEH4I6a","torrent":{"xt":"urn:btih:eae9e11759275985be24c1280836013da03d8b48","amp;dn":"Piya+Tore+Bina+-+Badshah+-+The+Don++2016+-+Jeet%2C+Nusrat+Faria%2C+S","amp;tr":["udp%3A%2F%2Ftracker.leechers-paradise.org%3A6969","udp%3A%2F%2Fzer0day.ch%3A1337","udp%3A%2F%2Fopen.demonii.com%3A1337","udp%3A%2F%2Ftracker.coppersurfer.tk%3A6969","udp%3A%2F%2Fexodus.desync.com%3A6969"],"infoHash":"eae9e11759275985be24c1280836013da03d8b48","infoHashBuffer":{"type":"Buffer","data":[234,233,225,23,89,39,89,133,190,36,193,40,8,54,1,61,160,61,139,72]},"announce":[],"urlList":[]}}